<svg xmlns="http://www.w3.org/2000/svg" width="120" height="120" viewBox="0 0 120 120" fill="none"><circle cx="60" cy="60" r="60" fill="#F6F1E3"></circle><path d="M49.1232 74.3712L57.0413 70.6727C62.6972 67.5512 68.4056 63.0396 71.9043 57.5836C72.562 56.5606 73.5879 55.0917 73.5353 54.0163C67.3007 61.2821 57.5412 66.0561 47.9657 66.7643C47.7553 58.1345 54.5423 51.4981 61.2766 47.0914C65.3278 44.4421 69.7209 42.3699 73.9825 40.0616C78.2967 37.7271 82.6899 35.2614 85.7151 31.1957C85.8992 30.9596 87.0041 29.7792 87.4776 29.0447C87.5828 28.8874 87.8459 28.9136 87.8985 29.0972C92.2653 43.6289 89.7136 62.2527 76.0081 70.8825C68.1162 75.8663 58.0936 75.8926 49.1495 74.3712H49.1232Z" fill="#284D3C"></path><path d="M54.9363 95.6701L52.5162 93.834C35.7065 78.5678 27.3412 54.9865 49.9382 40.2187C61.0131 32.9791 75.271 32.1135 85.2937 23.5098C85.6093 23.2213 86.0828 23.6148 85.8461 23.982C80.1376 33.2414 68.0894 36.7301 59.119 42.1073C41.4676 52.652 37.8373 68.8363 48.7281 86.3583C50.6747 89.506 53.0949 92.3126 55.4098 95.1718C55.6729 95.4865 55.252 95.9062 54.9363 95.6701Z" fill="#284D3C"></path><path d="M36.1008 44.9406C39.7765 44.9406 42.7562 41.9694 42.7562 38.3043C42.7562 34.6392 39.7765 31.668 36.1008 31.668C32.4251 31.668 29.4453 34.6392 29.4453 38.3043C29.4453 41.9694 32.4251 44.9406 36.1008 44.9406Z" fill="#284D3C"></path><path d="M73.5351 53.9922C73.5351 53.9922 58.1723 63.1991 48.4916 62.2548C48.4916 62.2548 47.7287 65.35 47.9655 66.7665C47.9655 66.7665 62.6443 66.3206 73.5351 54.0184V53.9922Z" fill="#284D3C"></path></svg>