<svg xmlns="http://www.w3.org/2000/svg" width="18" height="18" viewBox="0 0 18 18" fill="none"><path d="M10.6499 3.72012V1.38955C10.6499 0.624418 10.0406 0 9.28337 0H7.71663C6.95938 0 6.3501 0.624418 6.3501 1.38955V3.72892C4.91393 4.52043 4 6.0419 4 7.71288V14.8277C4 16.0238 4.96615 17 6.1499 17H10.8501C12.0338 17 13 16.0238 13 14.8277V7.71288C13 6.0419 12.0948 4.51164 10.6499 3.72012ZM7.52515 1.38955C7.52515 1.28401 7.61219 1.19607 7.71663 1.19607H9.28337C9.38781 1.19607 9.47485 1.28401 9.47485 1.38955V2.37455H7.51644V1.38955H7.52515ZM11.825 14.8277C11.825 15.373 11.3897 15.8127 10.8501 15.8127H6.1499C5.61025 15.8127 5.17505 15.373 5.17505 14.8277V7.71288C5.17505 6.3761 5.95841 5.17124 7.16828 4.63476C7.37718 4.53802 7.51644 4.32695 7.51644 4.0895V3.56182H9.47485V4.0895C9.47485 4.32695 9.61412 4.53802 9.82302 4.63476C11.0329 5.17124 11.8162 6.3761 11.8162 7.71288V14.8277H11.825ZM9.00484 7.41386C8.79594 7.05329 8.20406 7.05329 7.99516 7.41386L6.55029 9.91154C6.3675 10.2281 6.27176 10.5975 6.27176 10.9669C6.27176 12.119 7.19439 13.0512 8.33462 13.0512H8.66538C9.80561 13.0512 10.7282 12.1102 10.7282 10.9669C10.7282 10.5975 10.6325 10.2369 10.4497 9.91154L9.00484 7.41386ZM8.66538 11.8639H8.33462C7.83849 11.8639 7.44681 11.4594 7.44681 10.9669C7.44681 10.8086 7.49033 10.6503 7.56867 10.5096L8.5087 8.89136L9.44004 10.5096C9.51837 10.6503 9.5619 10.7998 9.5619 10.9669C9.5619 11.4594 9.16151 11.8639 8.67408 11.8639" fill="#9CB056"></path></svg>