<svg xmlns="http://www.w3.org/2000/svg" width="20" height="20" viewBox="0 0 20 20" fill="none"><g clip-path="url(#clip0_9_111)"><path d="M18.4 7.32999C18.41 7.20999 18.43 7.08999 18.43 6.95999C18.43 5.17999 17.04 3.72999 15.28 3.60999C15.28 2.64999 15.03 1.80999 14.76 1.25999C14.66 1.06999 14.48 0.93999 14.27 0.89999C14.06 0.85999 13.84 0.92999 13.69 1.07999C13.69 1.07999 12.81 1.89999 10.35 2.71999C9.40999 3.02999 8.57999 3.66999 7.86999 4.56999C7.29999 4.09999 6.60999 3.76999 5.83999 3.64999V2.45999C5.83999 1.09999 4.72999 -0.0100098 3.36999 -0.0100098C2.99999 -0.0100098 2.69999 0.28999 2.69999 0.66999C2.69999 1.04999 2.99999 1.33999 3.36999 1.33999C3.98999 1.33999 4.48999 1.83999 4.48999 2.45999V3.64999C2.63999 3.94999 1.18999 5.42999 0.94999 7.30999C0.38999 7.54999 -0.0100098 8.10999 -0.0100098 8.75999V9.65999C-0.0100098 12.61 1.29999 15.32 3.58999 17.17V17.75C3.58999 18.62 4.29999 19.32 5.15999 19.32H14.15C15.02 19.32 15.72 18.61 15.72 17.75V17.17C18.01 15.32 19.32 12.61 19.32 9.65999V8.75999C19.32 8.11999 18.94 7.56999 18.39 7.32999M15.14 4.94999C16.22 4.98999 17.08 5.87999 17.08 6.96999C17.08 7.04999 17.07 7.11999 17.06 7.18999H14.02C14.61 6.45999 14.96 5.68999 15.13 4.94999M10.78 4.00999C12.25 3.51999 13.22 3.02999 13.82 2.64999C14.06 3.68999 14.12 5.58999 12.13 7.18999H9.37999C9.28999 6.61999 9.08999 6.07999 8.78999 5.60999C9.36999 4.80999 10.03 4.25999 10.79 4.00999M5.16999 4.94999C6.54999 4.94999 7.69999 5.90999 8.00999 7.19999H2.33999C2.64999 5.90999 3.79999 4.94999 5.17999 4.94999M17.98 9.66999C17.98 12.31 16.76 14.73 14.64 16.32C14.44 16.47 14.34 16.72 14.39 16.97V17.76C14.39 17.88 14.29 17.98 14.17 17.98H5.16999C5.04999 17.98 4.93999 17.88 4.93999 17.76V17.01C4.99999 16.75 4.89999 16.48 4.68999 16.32C2.56999 14.73 1.34999 12.3 1.34999 9.66999V8.76999C1.34999 8.64999 1.44999 8.53999 1.57999 8.53999H17.77C17.89 8.53999 17.99 8.63999 17.99 8.76999V9.66999H17.98ZM7.38999 2.94999C7.12999 2.68999 7.12999 2.25999 7.38999 1.99999L8.28999 1.09999C8.54999 0.83999 8.97999 0.83999 9.23999 1.09999C9.49999 1.35999 9.49999 1.78999 9.23999 2.04999L8.33999 2.94999C8.20999 3.07999 8.03999 3.14999 7.85999 3.14999C7.67999 3.14999 7.50999 3.07999 7.37999 2.94999" fill="#9CB056"></path></g><defs><clipPath id="clip0_9_111"><rect width="19.33" height="19.33" fill="white"></rect></clipPath></defs></svg>