<svg xmlns="http://www.w3.org/2000/svg" width="18" height="18" viewBox="0 0 18 18" fill="none"><g clip-path="url(#clip0_3_66)"><path d="M15.16 0.550026C14.88 0.220026 14.49 0.0200256 14.06 2.56405e-05C13.64 -0.0199744 13.22 0.140026 12.93 0.440026L8.56003 4.81003C8.09003 5.28003 7.97003 6.00003 8.28003 6.55003C8.39003 6.75003 8.49003 7.07003 8.39003 7.48003C8.29003 7.91003 7.92003 8.28003 7.49003 8.38003C7.07003 8.48003 6.75003 8.38003 6.56003 8.26003C6.01003 7.96003 5.29003 8.07003 4.82003 8.54003L0.440026 12.93C0.140026 13.22 -0.0199744 13.64 2.56405e-05 14.06C0.0200256 14.49 0.220026 14.89 0.550026 15.16C2.42003 16.71 4.77003 17.54 7.19003 17.54C7.76003 17.54 8.34003 17.49 8.91003 17.4C13.27 16.69 16.68 13.28 17.39 8.92003C17.89 5.87003 17.1 2.90003 15.15 0.560026M9.45003 5.90003C9.45003 5.90003 9.45003 5.82003 9.50003 5.76003L11.69 3.57003C11.75 3.51003 11.84 3.47003 11.94 3.48003C11.99 3.48003 12.07 3.50003 12.12 3.58003C12.87 4.63003 13.27 5.86003 13.27 7.15003C13.27 8.11003 13.05 9.04003 12.63 9.89003C12.49 10.16 12.24 10.34 11.94 10.39C11.62 10.44 11.3 10.34 11.07 10.11L9.42003 8.47003C9.54003 8.26003 9.63003 8.04003 9.69003 7.80003C9.85003 7.15003 9.76003 6.47003 9.45003 5.90003ZM3.58003 11.69L5.77003 9.50003C5.77003 9.50003 5.86003 9.44003 5.89003 9.44003C5.89003 9.44003 5.90003 9.44003 5.91003 9.44003C6.48003 9.75003 7.16003 9.84003 7.81003 9.68003C8.05003 9.62003 8.27003 9.53003 8.48003 9.41003L10.13 11.05C10.36 11.28 10.46 11.6 10.41 11.92C10.36 12.22 10.18 12.48 9.91003 12.61C7.91003 13.61 5.42003 13.42 3.60003 12.1C3.53003 12.05 3.51003 11.97 3.50003 11.92C3.50003 11.83 3.52003 11.74 3.59003 11.67M16.06 8.69003C15.44 12.48 12.48 15.44 8.69003 16.06C6.03003 16.5 3.45003 15.81 1.41003 14.12C1.36003 14.08 1.35003 14.03 1.35003 14C1.35003 13.97 1.35003 13.92 1.40003 13.88L2.44003 12.84C2.54003 12.98 2.66003 13.12 2.80003 13.22C4.08003 14.14 5.58003 14.63 7.16003 14.63C8.33003 14.63 9.46003 14.36 10.5 13.84C11.16 13.51 11.61 12.9 11.73 12.16C11.75 12.03 11.75 11.89 11.75 11.76C11.76 11.76 11.77 11.76 11.79 11.76C11.91 11.76 12.04 11.75 12.16 11.73C12.9 11.61 13.51 11.16 13.84 10.5C14.36 9.46003 14.63 8.33003 14.63 7.16003C14.63 5.58003 14.14 4.08003 13.23 2.80003C13.13 2.65003 12.99 2.54003 12.85 2.44003L13.89 1.40003C13.89 1.40003 13.97 1.36003 14.01 1.36003C14.04 1.36003 14.09 1.37003 14.13 1.42003C15.82 3.46003 16.51 6.05003 16.07 8.71003M6.49003 12.01V11.04C6.49003 10.67 6.79003 10.37 7.17003 10.37C7.55003 10.37 7.84003 10.67 7.84003 11.04V12.01C7.84003 12.38 7.54003 12.68 7.17003 12.68C6.80003 12.68 6.49003 12.38 6.49003 12.01ZM10.37 7.16003C10.37 6.79003 10.67 6.49003 11.04 6.49003H12.01C12.38 6.49003 12.68 6.79003 12.68 7.16003C12.68 7.53003 12.38 7.83003 12.01 7.83003H11.04C10.67 7.83003 10.37 7.53003 10.37 7.16003Z" fill="#9CB056"></path><path d="M15.16 0.550026C14.88 0.220026 14.49 0.0200256 14.06 2.56405e-05C13.64 -0.0199744 13.22 0.140026 12.93 0.440026L8.56003 4.81003C8.09003 5.28003 7.97003 6.00003 8.28003 6.55003C8.39003 6.75003 8.49003 7.07003 8.39003 7.48003C8.29003 7.91003 7.92003 8.28003 7.49003 8.38003C7.07003 8.48003 6.75003 8.38003 6.56003 8.26003C6.01003 7.96003 5.29003 8.07003 4.82003 8.54003L0.440026 12.93C0.140026 13.22 -0.0199744 13.64 2.56405e-05 14.06C0.0200256 14.49 0.220026 14.89 0.550026 15.16C2.42003 16.71 4.77003 17.54 7.19003 17.54C7.76003 17.54 8.34003 17.49 8.91003 17.4C13.27 16.69 16.68 13.28 17.39 8.92003C17.89 5.87003 17.1 2.90003 15.15 0.560026M9.45003 5.90003C9.45003 5.90003 9.45003 5.82003 9.50003 5.76003L11.69 3.57003C11.75 3.51003 11.84 3.47003 11.94 3.48003C11.99 3.48003 12.07 3.50003 12.12 3.58003C12.87 4.63003 13.27 5.86003 13.27 7.15003C13.27 8.11003 13.05 9.04003 12.63 9.89003C12.49 10.16 12.24 10.34 11.94 10.39C11.62 10.44 11.3 10.34 11.07 10.11L9.42003 8.47003C9.54003 8.26003 9.63003 8.04003 9.69003 7.80003C9.85003 7.15003 9.76003 6.47003 9.45003 5.90003ZM3.58003 11.69L5.77003 9.50003C5.77003 9.50003 5.86003 9.44003 5.89003 9.44003C5.89003 9.44003 5.90003 9.44003 5.91003 9.44003C6.48003 9.75003 7.16003 9.84003 7.81003 9.68003C8.05003 9.62003 8.27003 9.53003 8.48003 9.41003L10.13 11.05C10.36 11.28 10.46 11.6 10.41 11.92C10.36 12.22 10.18 12.48 9.91003 12.61C7.91003 13.61 5.42003 13.42 3.60003 12.1C3.53003 12.05 3.51003 11.97 3.50003 11.92C3.50003 11.83 3.52003 11.74 3.59003 11.67M16.06 8.69003C15.44 12.48 12.48 15.44 8.69003 16.06C6.03003 16.5 3.45003 15.81 1.41003 14.12C1.36003 14.08 1.35003 14.03 1.35003 14C1.35003 13.97 1.35003 13.92 1.40003 13.88L2.44003 12.84C2.54003 12.98 2.66003 13.12 2.80003 13.22C4.08003 14.14 5.58003 14.63 7.16003 14.63C8.33003 14.63 9.46003 14.36 10.5 13.84C11.16 13.51 11.61 12.9 11.73 12.16C11.75 12.03 11.75 11.89 11.75 11.76C11.76 11.76 11.77 11.76 11.79 11.76C11.91 11.76 12.04 11.75 12.16 11.73C12.9 11.61 13.51 11.16 13.84 10.5C14.36 9.46003 14.63 8.33003 14.63 7.16003C14.63 5.58003 14.14 4.08003 13.23 2.80003C13.13 2.65003 12.99 2.54003 12.85 2.44003L13.89 1.40003C13.89 1.40003 13.97 1.36003 14.01 1.36003C14.04 1.36003 14.09 1.37003 14.13 1.42003C15.82 3.46003 16.51 6.05003 16.07 8.71003M6.49003 12.01V11.04C6.49003 10.67 6.79003 10.37 7.17003 10.37C7.55003 10.37 7.84003 10.67 7.84003 11.04V12.01C7.84003 12.38 7.54003 12.68 7.17003 12.68C6.80003 12.68 6.49003 12.38 6.49003 12.01ZM10.37 7.16003C10.37 6.79003 10.67 6.49003 11.04 6.49003H12.01C12.38 6.49003 12.68 6.79003 12.68 7.16003C12.68 7.53003 12.38 7.83003 12.01 7.83003H11.04C10.67 7.83003 10.37 7.53003 10.37 7.16003Z" fill="#9CB056"></path></g><defs><clipPath id="clip0_3_66"><rect width="17.54" height="17.53" fill="white"></rect></clipPath></defs></svg>