<svg xmlns="http://www.w3.org/2000/svg" width="20" height="20" viewBox="0 0 20 20" fill="none"><path d="M4.27 6.75C6.33 6.75 8.06 5.59 8.45 4.05H18.65C19.02 4.05 19.32 3.75 19.32 3.38C19.32 3.01 19.02 2.71 18.65 2.71H8.45C8.06 1.16 6.33 0 4.27 0C1.92 0 0 1.52 0 3.38C0 5.24 1.92 6.75 4.27 6.75ZM4.27 1.35C5.85 1.35 7.19 2.28 7.19 3.37C7.19 4.46 5.85 5.39 4.27 5.39C2.69 5.39 1.35 4.46 1.35 3.37C1.35 2.28 2.69 1.35 4.27 1.35ZM17.7 9H1.63C1.18 9 0.75 9.19 0.46 9.53C0.16 9.86 0.02 10.31 0.07 10.76C0.35 13.27 1.63 15.59 3.61 17.19V17.77C3.61 18.64 4.32 19.34 5.18 19.34H14.17C15.04 19.34 15.74 18.63 15.74 17.77V17.19C17.71 15.6 19 13.27 19.28 10.76C19.33 10.31 19.19 9.86 18.89 9.53C18.59 9.19 18.16 9 17.71 9M14.64 16.32C14.44 16.47 14.34 16.72 14.39 16.97V17.76C14.39 17.88 14.29 17.98 14.17 17.98H5.17C5.05 17.98 4.94 17.88 4.94 17.76V17.01C5 16.75 4.9 16.48 4.69 16.32C2.85 14.94 1.65 12.86 1.4 10.6C1.4 10.51 1.43 10.45 1.46 10.42C1.48 10.39 1.54 10.34 1.63 10.34H17.7C17.79 10.34 17.84 10.39 17.87 10.42C17.9 10.45 17.94 10.51 17.93 10.6C17.68 12.86 16.48 14.94 14.64 16.32Z" fill="#9CB056"></path></svg>